<svg width="243" height="162" viewBox="0 0 243 162" fill="none" xmlns="http://www.w3.org/2000/svg">
<rect x="0.497192" y="0.719238" width="241.888" height="161.192" fill="#1C2A2C"/>
<path d="M186.063 118.854C195.969 108.871 201.527 95.3783 201.527 81.3151C201.527 67.2519 195.969 53.7587 186.063 43.7759C186.004 43.7053 185.956 43.629 185.889 43.5626C185.823 43.4962 185.746 43.4474 185.675 43.3881C175.693 33.4827 162.2 27.9244 148.137 27.9244C134.074 27.9244 120.581 33.4827 110.598 43.3881C110.527 43.4474 110.451 43.4962 110.384 43.5626C110.318 43.629 110.269 43.7053 110.21 43.7759C100.304 53.7587 94.746 67.2519 94.746 81.3151C94.746 95.3783 100.304 108.871 110.21 118.854C110.269 118.925 110.318 119.001 110.384 119.067C110.451 119.134 110.527 119.183 110.598 119.242C120.58 129.147 134.074 134.706 148.137 134.706C162.2 134.706 175.693 129.147 185.676 119.242C185.746 119.183 185.823 119.134 185.889 119.067C185.956 119.001 186.004 118.925 186.063 118.854ZM101.134 84.4557H115.838C116.458 90.8712 118.982 96.9549 123.086 101.924L112.695 112.315C105.88 104.554 101.816 94.7616 101.134 84.4557ZM112.695 50.3149L123.086 60.7057C118.982 65.6752 116.458 71.7589 115.838 78.1744H101.134C101.816 67.8685 105.88 58.0757 112.695 50.3149ZM195.139 78.1744H180.435C179.816 71.7589 177.292 65.6752 173.187 60.7057L183.578 50.3149C190.393 58.0757 194.457 67.8685 195.139 78.1744ZM148.137 107.487C142.96 107.487 137.9 105.952 133.596 103.076C129.292 100.2 125.938 96.1129 123.957 91.3306C121.976 86.5483 121.458 81.286 122.468 76.2092C123.478 71.1323 125.97 66.469 129.63 62.8088C133.291 59.1486 137.954 56.6559 143.031 55.6461C148.108 54.6362 153.37 55.1545 158.152 57.1354C162.934 59.1163 167.022 62.4708 169.898 66.7747C172.774 71.0787 174.309 76.1388 174.309 81.3151C174.301 88.2539 171.541 94.9063 166.634 99.8128C161.728 104.719 155.075 107.479 148.137 107.487ZM168.746 56.2647C163.776 52.1602 157.693 49.636 151.277 49.0166V34.3129C161.583 34.9948 171.376 39.0586 179.137 45.8739L168.746 56.2647ZM144.996 49.0166C138.58 49.636 132.497 52.1602 127.527 56.2647L117.137 45.8739C124.897 39.0586 134.69 34.9948 144.996 34.3129V49.0166ZM127.527 106.365C132.497 110.47 138.58 112.994 144.996 113.614V128.317C134.69 127.635 124.897 123.572 117.137 116.756L127.527 106.365ZM151.277 113.614C157.693 112.994 163.776 110.47 168.746 106.365L179.137 116.756C171.376 123.572 161.583 127.635 151.277 128.317V113.614ZM173.187 101.924C177.292 96.9549 179.816 90.8712 180.435 84.4557H195.139C194.457 94.7616 190.393 104.554 183.578 112.315L173.187 101.924Z" fill="#334D51"/>
<circle cx="94.746" cy="81.3151" r="51.3361" fill="#1C2A2C"/>
<path d="M132.673 118.854C142.578 108.871 148.137 95.3783 148.137 81.3151C148.137 67.2519 142.578 53.7587 132.673 43.7759C132.613 43.7053 132.565 43.629 132.498 43.5626C132.432 43.4962 132.356 43.4474 132.285 43.3881C122.302 33.4827 108.809 27.9244 94.746 27.9244C80.683 27.9244 67.1899 33.4827 57.2073 43.3881C57.1365 43.4474 57.0601 43.4962 56.9936 43.5626C56.9271 43.629 56.8786 43.7053 56.8193 43.7759C46.9138 53.7587 41.3554 67.2519 41.3554 81.3151C41.3554 95.3783 46.9138 108.871 56.8193 118.854C56.8786 118.925 56.9272 119.001 56.9936 119.067C57.0601 119.134 57.1365 119.183 57.207 119.242C67.1897 129.147 80.6829 134.706 94.746 134.706C108.809 134.706 122.302 129.147 132.285 119.242C132.356 119.183 132.432 119.134 132.498 119.067C132.565 119.001 132.613 118.925 132.673 118.854ZM47.7438 84.4557H62.4475C63.0669 90.8712 65.5911 96.9549 69.6957 101.924L59.3049 112.315C52.4896 104.554 48.4257 94.7616 47.7438 84.4557ZM59.3049 50.3149L69.6957 60.7057C65.5911 65.6752 63.0669 71.7589 62.4475 78.1744H47.7438C48.4257 67.8685 52.4896 58.0757 59.3049 50.3149ZM141.748 78.1744H127.045C126.425 71.7589 123.901 65.6752 119.796 60.7057L130.187 50.3149C137.003 58.0757 141.066 67.8685 141.748 78.1744ZM94.746 107.487C89.5697 107.487 84.5097 105.952 80.2057 103.076C75.9018 100.2 72.5473 96.1129 70.5664 91.3306C68.5855 86.5483 68.0672 81.286 69.077 76.2092C70.0869 71.1323 72.5795 66.469 76.2397 62.8088C79.8999 59.1486 84.5633 56.6559 89.6402 55.6461C94.717 54.6362 99.9793 55.1545 104.762 57.1354C109.544 59.1163 113.631 62.4708 116.507 66.7747C119.383 71.0787 120.918 76.1388 120.918 81.3151C120.91 88.2539 118.15 94.9063 113.244 99.8128C108.337 104.719 101.685 107.479 94.746 107.487ZM115.355 56.2647C110.386 52.1602 104.302 49.636 97.8867 49.0166V34.3129C108.193 34.9948 117.985 39.0586 125.746 45.8739L115.355 56.2647ZM91.6054 49.0166C85.1899 49.636 79.1062 52.1602 74.1367 56.2647L63.7459 45.8739C71.5066 39.0586 81.2995 34.9948 91.6054 34.3129V49.0166ZM74.1367 106.365C79.1062 110.47 85.1899 112.994 91.6054 113.614V128.317C81.2995 127.635 71.5066 123.572 63.7459 116.756L74.1367 106.365ZM97.8867 113.614C104.302 112.994 110.386 110.47 115.355 106.365L125.746 116.756C117.985 123.572 108.193 127.635 97.8867 128.317V113.614ZM119.796 101.924C123.901 96.9549 126.425 90.8712 127.045 84.4557H141.748C141.066 94.7616 137.003 104.554 130.187 112.315L119.796 101.924Z" fill="#334D51"/>
</svg>
