<svg width="243" height="162" viewBox="0 0 243 162" fill="none" xmlns="http://www.w3.org/2000/svg">
<rect x="0.963257" y="0.719238" width="241.888" height="161.192" fill="#1C2A2C"/>
<path d="M204.87 40.0129H127.472C126.868 40.0132 126.288 40.2535 125.86 40.6809C125.433 41.1084 125.193 41.688 125.192 42.2925V43.5391H106.278V42.2899C106.278 41.6854 106.038 41.1057 105.61 40.6783C105.183 40.2509 104.603 40.0106 103.999 40.0103H42.6928C42.3933 40.0104 42.0967 40.0696 41.82 40.1844C41.5434 40.2992 41.292 40.4673 41.0803 40.6792C40.8687 40.8912 40.7008 41.1427 40.5863 41.4195C40.4719 41.6963 40.413 41.9929 40.4132 42.2925V57.1646C40.4136 57.7691 40.6538 58.3487 41.0813 58.7761C41.5087 59.2036 42.0883 59.4439 42.6928 59.4442H103.999C104.603 59.4439 105.183 59.2036 105.61 58.7761C106.038 58.3487 106.278 57.7691 106.278 57.1646V55.9141H125.192V57.162C125.193 57.7665 125.433 58.3461 125.86 58.7735C126.288 59.201 126.868 59.4413 127.472 59.4416H131.711V88.1568C131.704 95.689 134.179 103.014 138.751 108.999C138.838 109.135 138.938 109.262 139.05 109.378C142.935 114.338 148.099 118.144 153.987 120.385C154.06 120.419 154.135 120.448 154.211 120.474C161.932 123.335 170.422 123.335 178.143 120.474C178.209 120.45 178.273 120.426 178.34 120.396C184.289 118.134 189.5 114.276 193.399 109.246C193.464 109.175 193.524 109.098 193.578 109.018C197.839 103.448 200.287 96.7042 200.593 89.6978C200.593 89.6692 200.593 89.6405 200.593 89.6119C200.612 89.1299 200.629 88.6479 200.629 88.1607V74.9599C200.629 74.9247 200.629 74.8895 200.629 74.853V59.4442H204.868C205.167 59.4444 205.464 59.3856 205.741 59.2711C206.018 59.1566 206.269 58.9887 206.481 58.7771C206.693 58.5654 206.861 58.314 206.976 58.0374C207.091 57.7607 207.15 57.4641 207.15 57.1646V42.2925C207.15 41.688 206.909 41.1084 206.482 40.6809C206.055 40.2535 205.475 40.0132 204.87 40.0129ZM44.9724 44.5721H49.9381V54.885H44.9724V44.5721ZM54.4973 54.885V44.5721H71.7571V54.885H54.4973ZM101.719 54.885H76.3176V44.5721H101.719V54.885ZM106.278 51.3549V48.0983H125.192V51.3549H106.278ZM191.352 104.242L181.794 94.6843L190.971 85.5073L195.971 90.5068C195.591 95.3995 194.004 100.122 191.352 104.251V104.242ZM136.372 90.5107L141.367 85.5164L150.544 94.6934L140.989 104.248C138.339 100.121 136.753 95.4009 136.372 90.5107ZM160.991 59.4507L153.773 66.6673L146.556 59.4507H160.991ZM166.174 60.7143L175.352 69.8913L166.169 79.0684L156.999 69.8913L166.174 60.7143ZM150.543 69.8913L141.367 79.0684L136.27 73.9725V59.4507H140.104L150.543 69.8913ZM136.27 80.4192L138.143 82.2924L136.27 84.1656V80.4192ZM144.591 82.2924L153.768 73.1153L162.945 82.2924L153.768 91.4759L144.591 82.2924ZM166.169 85.5164L175.346 94.6934L166.169 103.87L156.999 94.6934L166.169 85.5164ZM169.393 82.2924L178.57 73.1153L187.747 82.2924L178.57 91.4759L169.393 82.2924ZM194.195 82.2924L196.072 80.4153V84.1695L194.195 82.2924ZM196.072 73.9673L190.971 79.0684L181.794 69.8913L192.235 59.4507H196.078L196.072 73.9673ZM178.57 66.6725L171.354 59.4559H185.787L178.57 66.6725ZM143.763 107.923L153.768 97.9174L162.945 107.094L154.4 115.64C150.328 113.884 146.696 111.249 143.763 107.923ZM159.247 117.239L166.169 110.318L173.091 117.241C168.541 118.332 163.797 118.331 159.247 117.239ZM177.94 115.641L169.393 107.094L178.57 97.9174L188.578 107.926C185.645 111.251 182.012 113.886 177.94 115.641ZM202.591 54.885H129.752V44.5721H202.591V54.885Z" fill="#334D51"/>
</svg>
