<svg xmlns="http://www.w3.org/2000/svg" viewBox="0 0 75 75"><defs><style>.cls-1{fill:#fff;}.cls-2{fill:#241f37;}</style></defs><g id="Layer_3" data-name="Layer 3"><circle class="cls-1" cx="37.49" cy="37.49" r="37.49"/></g><g id="Layer_2" data-name="Layer 2"><path class="cls-2" d="M4.77,43.18a12.21,12.21,0,0,0-.71-2.62,21.51,21.51,0,0,1-1.72-4.63,32.56,32.56,0,0,1-.51-4.74c0-.45,0-.87.54-1l2.19,1.53c-.11-1.14.55-2.06.17-3.24a11.23,11.23,0,0,1,.39-7.64c.18-.48.49-.66.94-.43s.85.52,1.27.79c.18.12.35.28.62.5a3.38,3.38,0,0,0,.16-.86,11.78,11.78,0,0,1,.7-4.49,17.72,17.72,0,0,1,1.4-3.11c.5-.91,1.09-.84,1.52.11A10,10,0,0,1,12,14.48a.89.89,0,0,0,.4.52c.11.05.38-.13.52-.27a1.14,1.14,0,0,0,.3-.56C13.55,11.53,15.14,9.66,17,8a17.14,17.14,0,0,1,1.58-1.23,1.83,1.83,0,0,1,.62-.32c.65-.18.8,0,.8.64V8.89a.78.78,0,0,0,.9-.71c.28-1.94,1.7-3,3.13-4A19.28,19.28,0,0,1,26.38,3a1.12,1.12,0,0,1,.42-.15c.35,0,.7,0,1.05,0a3.46,3.46,0,0,1-.12.92c-.19.52-.47,1-.69,1.52a2.72,2.72,0,0,0-.08.51c.18-.07.43-.11.5-.24a8.25,8.25,0,0,1,2.45-2.54,5.4,5.4,0,0,1,2.93-1c.32,0,.63-.17.95-.19s.56,0,.63.16a.78.78,0,0,1-.06.71c-.36.5-.79,1-1.2,1.43a5.88,5.88,0,0,1-.49.47h7.45L39.3,3.8a5.44,5.44,0,0,1-.86-.87,1,1,0,0,1-.16-.81c.09-.19.49-.32.75-.32a7.29,7.29,0,0,1,6.45,3.51,5,5,0,0,0,.49.54l.18-.15a12,12,0,0,1-.76-1.15,5.5,5.5,0,0,1-.56-1.36,1,1,0,0,1,.39-.72c.08-.07.49.09.61.25.72.92,1.81,1.06,2.81,1.41.18.07.41,0,.55.16,1.29,1,2.68,2,3,3.8a.75.75,0,0,0,.23.44,2.6,2.6,0,0,0,.62.25,2.24,2.24,0,0,0,.08-.57c0-.63-.13-1.25-.22-2.06a6.24,6.24,0,0,1,1.62.57,14.91,14.91,0,0,1,4.24,4c.45.75.76,1.57,1.15,2.36a7.52,7.52,0,0,0,.77,1.46c.36.46.63.35.77-.21A10.72,10.72,0,0,1,61.86,13,.61.61,0,0,1,63,12.82,11.34,11.34,0,0,1,64.8,16.5c.17.79.49,1.55.68,2.35.13.53.11,1.11.22,1.65a4.63,4.63,0,0,0,.42.87c.23-.16.46-.31.68-.48a.69.69,0,0,0,.2-.25c.25-.41.59-.82,1.08-.63a1.63,1.63,0,0,1,.71.88,12,12,0,0,1,1.1,4.74A13.52,13.52,0,0,1,69.64,28a2.56,2.56,0,0,0,.11,1.68,11.57,11.57,0,0,1,.44,1.8,11,11,0,0,1,1-1.11,7,7,0,0,1,1-.65,3.54,3.54,0,0,1,.35,1.18,54.09,54.09,0,0,1-.39,6,27.09,27.09,0,0,1-1.25,3.79,19.6,19.6,0,0,0-.41,2.23c.63-.35,1.08-.61,1.56-.84.92-.43,1.25-.24,1,.75-.78,3.82-1.91,7.49-4.92,10.24-.48.44-1,.82-1.51,1.22a1.16,1.16,0,0,0-.57,1.06h3.32a12.73,12.73,0,0,1-4.15,5.49,13.05,13.05,0,0,1-6.37,2.45l0,.16c.13.09.24.25.38.27.72.11,1.44.17,2.16.27.18,0,.48.09.49.17a.68.68,0,0,1-.16.58A12,12,0,0,1,59.8,66c-.71.34-1.5.48-2.24.76s-1.39.66-2.11.92a9.92,9.92,0,0,1-1.86.46,16,16,0,0,1-3.07.29,8.41,8.41,0,0,0-3.22.77,3.66,3.66,0,0,1-1.16.29c-6,0-11.92.05-17.87,0A20.76,20.76,0,0,1,25.16,69c-1.16-.18-2.33-.31-3.47-.58-1.36-.33-2.68-.78-4-1.19a.7.7,0,0,1-.37-.25c-.5-.89-1.47-1.22-2.18-1.86a3,3,0,0,1-.41-.73,3.46,3.46,0,0,1,.74-.38,15,15,0,0,0,2.17-.54,2.19,2.19,0,0,0-.49-.17,13.11,13.11,0,0,1-9.84-6.4,3.54,3.54,0,0,1-.39-.59c-.09-.25-.22-.58-.12-.76a.88.88,0,0,1,.7-.3c.58,0,1.15.16,1.72.23a4.39,4.39,0,0,0,.63,0l.14-.2a4.23,4.23,0,0,0-.75-.82,12.49,12.49,0,0,1-3.39-3,19.61,19.61,0,0,1-2.95-5.64c-.26-.8-.54-1.6-.77-2.4-.08-.27-.13-.74,0-.83a1.23,1.23,0,0,1,.94-.15A13.75,13.75,0,0,1,4.77,43.18ZM36.88,9.39a29.17,29.17,0,0,0-11.12,2.16,27.42,27.42,0,0,0-12.28,9.77A26.48,26.48,0,0,0,10,28.24a27.05,27.05,0,0,0-1.35,6.89,26.25,26.25,0,0,0,.67,8.19c.33,1.33.81,2.63,1.26,3.93.05.17.33.27.5.4.13-.18.34-.33.37-.52.46-2.29.75-4.61,1.37-6.85.87-3.06,2-6.06,3-9.07a4.54,4.54,0,0,1,1.58-2.39c.47-.33.94-.59.85-1.29a.78.78,0,0,1,.32-.54A7.93,7.93,0,0,1,20,26.05,18.43,18.43,0,0,1,26,24.37a3.64,3.64,0,0,1,2.73.65,1.88,1.88,0,0,0,1,.3c.9,0,1.81-.05,2.71-.05,1.94,0,3.88,0,5.82,0,1.74,0,3.48,0,5.22-.06a4,4,0,0,0,2.76-.65,2.07,2.07,0,0,1,1.33-.37,16,16,0,0,1,3.18.43A32.69,32.69,0,0,1,54.62,26c.84.34,1.63.8,1.75,1.88,0,.18.25.39.44.5a4.3,4.3,0,0,1,1.82,2.19c.26.57.56,1.12.79,1.7,1.06,2.8,2.19,5.57,3.14,8.4.68,2,1.09,4.15,1.65,6.22.07.22.32.4.49.6.17-.19.44-.36.5-.58a28.08,28.08,0,0,0,1-11.31A27.55,27.55,0,0,0,61.76,23C55.84,14.17,47.43,9.79,36.88,9.39ZM38.19,65.8h5.25a6.83,6.83,0,0,0,1.28-.08,25.13,25.13,0,0,0,6.2-2.13,27.65,27.65,0,0,0,7.81-5.66c.68-.69.62-.74-.18-1.22a12.08,12.08,0,0,1-2.16-1.6c-1.91-1.83-3.74-3.75-5.66-5.58a4.53,4.53,0,0,0-3.31-1.38c-2.07,0-4.14-.06-6.21-.05-4.38,0-8.76.12-13.14.14a3.51,3.51,0,0,0-2.59,1c-1.48,1.51-2.92,3-4.37,4.58a12.88,12.88,0,0,1-3.5,3.12c-.58.29-.65.5-.17,1a35,35,0,0,0,3.22,2.88,27.49,27.49,0,0,0,7.12,3.78,15.83,15.83,0,0,0,6.79,1.32C35.77,65.72,37,65.8,38.19,65.8ZM23.37,36.67a2.88,2.88,0,0,0,3.06-2.78A3.92,3.92,0,0,0,23.2,30.5a3.44,3.44,0,0,0-3.07,3.31A3.32,3.32,0,0,0,23.37,36.67Zm24.49,4.19a3.28,3.28,0,0,0-2.74-3.06c-2,0-3.49,1.13-3.51,2.81a3.46,3.46,0,0,0,3,3.06C46.13,43.78,48.1,42.26,47.86,40.86Zm-21-.23v1.1a.8.8,0,0,0,.89.88h.58c1.17,0,1.25.11,1.31,1.29a1.28,1.28,0,0,0,.47.94,1.1,1.1,0,0,0,1.72-1.05c0-1.38.08-1.44,1.48-1.44h.13c1,0,1.29-.49.73-1.32a1.37,1.37,0,0,0-1-.38c-1.46,0-1.47,0-1.55-1.48a.81.81,0,0,0-.78-.86c-.93-.1-1.49.09-1.62.57a.91.91,0,0,0,0,.43c.21.85-.1,1.28-1,1.31C27.88,40.64,27.43,40.63,26.9,40.63ZM53.12,30.51A1.65,1.65,0,0,0,51.72,29a1.34,1.34,0,0,0-1.34,1.53A1.75,1.75,0,0,0,52,32.1C52.48,32.08,53.13,31.2,53.12,30.51Zm-5.4,4.59a1.64,1.64,0,0,0,1.72-1.41c.05-.62-.86-1.36-1.56-1.35a1.42,1.42,0,0,0-1.42,1.44A1.22,1.22,0,0,0,47.72,35.1Zm4,3.09c.61,0,1.52-.75,1.52-1.26a1.48,1.48,0,0,0-3-.13A1.58,1.58,0,0,0,51.72,38.19Zm5.11-4.46a1.63,1.63,0,0,0-1.43-1.39,1.8,1.8,0,0,0-1.53,1.25,2.47,2.47,0,0,0,1.45,1.5A1.76,1.76,0,0,0,56.83,33.73ZM44.1,29.55l.13.17a4,4,0,0,0,.66-.4A12.29,12.29,0,0,0,46,28.19a4.25,4.25,0,0,1,3.22-1.36,16.12,16.12,0,0,1,3.85.69c.23.05.46.07.69.1l.09-.25A4.24,4.24,0,0,0,53,26.9c-.58-.16-1.18-.25-1.77-.36a6.09,6.09,0,0,0-5,.8A7.41,7.41,0,0,0,44.1,29.55Zm-1,1a1,1,0,0,0-.35.07,4,4,0,0,1-2.75.67c-.47,0-.95,0-1.42,0-1.85-.06-3.71.22-5.52-.34l-1.6-.49a3.2,3.2,0,0,0,2.39,1.26c2.39,0,4.78,0,7.17,0A2.35,2.35,0,0,0,43.08,30.54ZM30.2,29.59c-1.29-1.81-2.88-3.09-5.24-3.05-1.24,0-3.65.57-3.84.9a25.16,25.16,0,0,1,4.9-.3A7,7,0,0,1,30.2,29.59Zm10.94,3.14a3.17,3.17,0,0,0-.66.88c-.11.36.59,1,1,1a.79.79,0,0,0,.69-.87C42.14,33.2,41.77,32.83,41.14,32.73Zm-6.65.84c-.3-.24-.66-.72-.9-.67s-.64.53-1,.82a3.67,3.67,0,0,0,.92.81C33.88,34.67,34.37,34.12,34.49,33.57Z"/></g></svg>